Coordinates
version=1
nRows=5
nColumns=40
inDegrees=yes

Units are S.I. units (second, meters, Newtons, ...)
Angles are in degrees.

endheader
time	pelvis_tilt	pelvis_list	pelvis_rotation	pelvis_tx	pelvis_ty	pelvis_tz	hip_flexion_r	hip_adduction_r	hip_rotation_r	knee_angle_r	knee_angle_r_beta	ankle_angle_r	subtalar_angle_r	mtp_angle_r	hip_flexion_l	hip_adduction_l	hip_rotation_l	knee_angle_l	knee_angle_l_beta	ankle_angle_l	subtalar_angle_l	mtp_angle_l	lumbar_extension	lumbar_bending	lumbar_rotation	arm_flex_r	arm_add_r	arm_rot_r	elbow_flex_r	pro_sup_r	wrist_flex_r	wrist_dev_r	arm_flex_l	arm_add_l	arm_rot_l	elbow_flex_l	pro_sup_l	wrist_flex_l	wrist_dev_l
     24.36000000	     -6.06975682	     -8.51355401	      3.39167312	      1.05429612	      0.91603540	      0.45931831	      1.04113768	      7.42990747	    -15.84145547	      9.01230632	      9.01230632	     16.95319908	     10.01223961	     -1.69881233	     35.44461656	    -11.23137612	     -0.15433011	     22.96951490	     22.96951490	      3.26377402	    -12.54235861	     10.51406361	    -11.52900637	      7.65618556	      4.34564836	     58.20987965	    -13.44431763	      5.33046337	     97.85115365	     44.24684548	      0.00000000	      0.00000000	    -22.43262735	     -9.22322794	     15.25245950	     35.91768991	     44.29092706	      0.00000000	      0.00000000
     24.37171429	     -5.96206682	     -8.46266004	      3.03512408	      1.05502567	      0.91485808	      0.45740374	      0.52967895	      7.18529662	    -15.37932746	      9.53103856	      9.53103856	     17.55457481	      9.88160289	     -1.77368954	     34.84965996	    -11.20723900	     -0.21438424	     24.01134901	     24.01134901	      3.16014796	    -13.24719018	     10.22882486	    -11.34394796	      7.51779010	      4.34264649	     58.77456993	    -13.33738796	      5.36295273	     98.40436890	     44.23711784	      0.00000000	      0.00000000	    -22.92937767	     -9.10118777	     15.37886104	     35.98417451	     44.27913896	      0.00000000	      0.00000000
     24.38342857	     -5.95931284	     -8.37896720	      2.71088518	      1.05549626	      0.91370608	      0.45539573	      0.43983984	      6.85513497	    -14.63470422	     10.61823820	     10.61823820	     18.50954795	      9.00122953	     -0.97477290	     34.34031980	    -11.07920579	     -0.11597667	     24.82963367	     24.82963367	      2.71192713	    -14.28664414	      9.08684152	    -11.13796970	      7.34632153	      4.30490948	     58.93817628	    -13.54441863	      5.78145544	     99.92953770	     44.22041774	      0.00000000	      0.00000000	    -23.59914580	     -9.29303645	     15.73203220	     37.26491883	     44.29620626	      0.00000000	      0.00000000
     24.39514286	     -5.86158601	     -8.25997866	      2.44260089	      1.05589347	      0.91294174	      0.45315727	      0.19858664	      6.45824868	    -14.22770227	     11.56169896	     11.56169896	     19.04565990	      8.61597292	     -1.05141461	     33.90155631	    -10.94514105	     -0.09481846	     25.85357967	     25.85357967	      2.95448003	    -14.84868637	      8.70464083	    -11.04181249	      7.17773607	      4.07787763	     59.14530762	    -13.36811210	      5.86094651	    100.64280802	     44.20656489	      0.00000000	      0.00000000	    -23.75283316	     -9.21404163	     15.87245898	     37.34068267	     44.29438357	      0.00000000	      0.00000000
     24.40685714	     -5.81230109	     -8.06025353	      2.18820123	      1.05607396	      0.91244847	      0.45076088	      0.17715058	      5.93395272	    -13.72911575	     12.78678947	     12.78678947	     19.54661691	      7.94568362	     -1.07861906	     33.52020087	    -10.71173570	     -0.10631990	     26.76038364	     26.76038364	      3.33683917	    -15.38668791	      8.35388220	    -10.94051765	      6.89976490	      3.85406306	     58.99888204	    -13.38381807	      5.99742789	    101.60999953	     44.18362606	      0.00000000	      0.00000000	    -23.72826269	     -9.19327712	     15.97403034	     37.52587394	     44.30261258	      0.00000000	      0.00000000
